<?xml version="1.0" encoding="UTF-8" standalone="no"?>
<!-- Generator: Adobe Illustrator 19.0.0, SVG Export Plug-In . SVG Version: 6.00 Build 0)  -->

<svg
   xmlns:dc="http://purl.org/dc/elements/1.1/"
   xmlns:cc="http://creativecommons.org/ns#"
   xmlns:rdf="http://www.w3.org/1999/02/22-rdf-syntax-ns#"
   xmlns:svg="http://www.w3.org/2000/svg"
   xmlns="http://www.w3.org/2000/svg"
   xmlns:sodipodi="http://sodipodi.sourceforge.net/DTD/sodipodi-0.dtd"
   xmlns:inkscape="http://www.inkscape.org/namespaces/inkscape"
   version="1.1"
   id="Layer_1"
   x="0px"
   y="0px"
   viewBox="0 0 496.2 496.2"
   style="enable-background:new 0 0 496.2 496.2;"
   xml:space="preserve"
   sodipodi:docname="refrigerator_closed.svg"
   inkscape:version="0.92.2 (5c3e80d, 2017-08-06)"><metadata
     id="metadata290"><rdf:RDF><cc:Work
         rdf:about=""><dc:format>image/svg+xml</dc:format><dc:type
           rdf:resource="http://purl.org/dc/dcmitype/StillImage" /><dc:title></dc:title></cc:Work></rdf:RDF></metadata><defs
     id="defs288" /><sodipodi:namedview
     pagecolor="#ffffff"
     bordercolor="#666666"
     borderopacity="1"
     objecttolerance="10"
     gridtolerance="10"
     guidetolerance="10"
     inkscape:pageopacity="0"
     inkscape:pageshadow="2"
     inkscape:window-width="1920"
     inkscape:window-height="1138"
     id="namedview286"
     showgrid="false"
     inkscape:zoom="1.8964127"
     inkscape:cx="248.10001"
     inkscape:cy="248.10001"
     inkscape:window-x="-8"
     inkscape:window-y="-8"
     inkscape:window-maximized="1"
     inkscape:current-layer="Layer_1" /><path
     style="fill:#32BEA6;"
     d="M496.2,248.1C496.2,111.1,385.1,0,248.1,0S0,111.1,0,248.1s111.1,248.1,248.1,248.1  S496.2,385.1,496.2,248.1z"
     id="path2" /><path
     style="fill:#FFFFFF;"
     d="M283.7,404.1c0,7.7-6.3,14-14,14H140.3c-7.7,0-14-6.3-14-14v-329c0-7.7,6.3-14,14-14h129.3  c7.7,0,14,6.3,14,14v329H283.7z"
     id="path4" /><g
     id="g172"><rect
       x="126.3"
       y="177.5"
       style="fill:#CCCACA;"
       width="157.4"
       height="4.5"
       id="rect168" /><rect
       x="283.3"
       y="182"
       style="fill:#CCCACA;"
       width="0.7"
       height="222.8"
       id="rect170" /></g><path
     style="fill:#C1C1C1;"
     d="M150.5,140c0,16.8-2.4,23.4-5.3,23.4c-2.9,0-5.3-6.6-5.3-23.4c0-16.8,2.4-23.4,5.3-23.4  C148.1,116.7,150.5,123.2,150.5,140z"
     id="path174" /><path
     style="fill:#E0DEDE;"
     d="M145.2,163.4c-2.9,0-5.3-6.6-5.3-23.4c0-16.8,2.4-23.4,5.3-23.4C148.1,116.7,148.1,163.4,145.2,163.4  z"
     id="path176" /><g
     id="g255" /><g
     id="g257" /><g
     id="g259" /><g
     id="g261" /><g
     id="g263" /><g
     id="g265" /><g
     id="g267" /><g
     id="g269" /><g
     id="g271" /><g
     id="g273" /><g
     id="g275" /><g
     id="g277" /><g
     id="g279" /><g
     id="g281" /><g
     id="g283" /><path
     inkscape:connector-curvature="0"
     style="fill:#c1c1c1"
     d="m 151.36525,226.288 c 0,16.8 -2.4,23.4 -5.3,23.4 -2.9,0 -5.3,-6.6 -5.3,-23.4 0,-16.8 2.4,-23.4 5.3,-23.4 2.9,0.1 5.3,6.6 5.3,23.4 z"
     id="path174-4" /><path
     inkscape:connector-curvature="0"
     style="fill:#e0dede"
     d="m 146.06525,249.688 c -2.9,0 -5.3,-6.6 -5.3,-23.4 0,-16.8 2.4,-23.4 5.3,-23.4 2.9,0.1 2.9,46.8 0,46.8 z"
     id="path176-9" /></svg>