<?xml version="1.0" encoding="utf-8"?>
<!-- Generator: Adobe Illustrator 16.0.3, SVG Export Plug-In . SVG Version: 6.00 Build 0)  -->
<!DOCTYPE svg PUBLIC "-//W3C//DTD SVG 1.1//EN" "http://www.w3.org/Graphics/SVG/1.1/DTD/svg11.dtd">
<svg version="1.1" id="Ebene_1" xmlns="http://www.w3.org/2000/svg" xmlns:xlink="http://www.w3.org/1999/xlink" x="0px" y="0px"
	 width="1000px" height="733.332px" viewBox="0 0 1000 733.332" enable-background="new 0 0 1000 733.332" xml:space="preserve">
<g>
	<path fill="#F4D91B" d="M42.5,172.625c0,36.635,10.544,69.37,30.006,100.449c10.657,17.042,25.782,30.477,41.232,43.019
		c2.323,1.868,11.583,10.381,16.099,10.381c8.286-10.576,17.237-20.633,27.017-29.844c14.41-13.614,30.511-25.457,48.104-34.604
		c8.823-4.598,18.033-8.479,27.49-11.648c13.401-4.451,12.314-9.876,17.967-22.321c18.261-40.095,42.727-77.655,74.13-108.701
		c7.018-6.921,14.443-13.532,22.128-19.723c12.542-10.088,5.653-4.063,3.589-14.41c-9.049-18.098-23.296-32.638-38.6-45.585
		c-32.2-27.277-70.264-38.356-112.161-37.495C111.74,3.976,42.5,87.823,42.5,172.625z"/>
	<path fill="#969696" d="M786.951,234.944C737.045,151.765,653.896,101.89,562.368,101.89c-41.622,0-79.021,8.352-112.292,24.954
		c-12.508,4.159-24.954,12.445-37.429,20.795c-12.479,8.318-24.954,20.794-37.463,33.271
		c-33.273,37.431-62.384,83.179-74.861,133.086c-29.113,4.19-54.067,12.477-79.053,33.271
		c-16.635,12.478-29.113,24.953-37.397,41.623c-8.318,12.51-16.635,24.985-20.794,37.429c-8.287,20.798-12.446,41.592-12.446,66.512
		c0,89.257,65.147,163.89,148.163,173.539l44.384-94.484h-22.028c-41.591,0-79.021-37.433-79.021-83.18
		c0-29.146,16.635-58.227,37.43-70.733c8.319-4.096,16.637-8.287,24.954-8.287h4.159c4.16,0,4.16,0,8.351,0
		c12.475,0,29.113,4.191,41.557,12.479c4.191,0,4.191,4.156,8.35,4.156c8.318,0,16.635-8.348,16.635-16.635v-4.19
		c0-8.318,0-12.443,0-20.764c0-12.476,0-20.858,4.16-33.271c0-4.159,0-4.159,0-8.318c8.287-41.557,29.113-79.019,58.226-103.94
		c33.271-29.146,74.826-45.781,116.449-45.781c54.035,0,103.975,24.922,137.213,66.543c12.478,16.636,20.859,33.271,29.146,54.065
		c4.191,4.191,8.317,8.352,12.478,8.352c4.191,0,4.191,0,8.285,0c16.701,0,33.336,4.126,49.974,12.476
		c41.558,20.795,70.668,66.576,70.668,116.483c3.282,51.923-29.048,95.723-74.894,112.746h1.269l-45.425,103.454
		c4.453,0,11.339,0,15.109,0c108.129-8.285,191.275-103.941,191.275-216.2C957.468,343.11,886.768,251.614,786.951,234.944z"/>
	<g>
		<path fill="#74BAE3" d="M672.825,591.745c9.177,21.619,23.384,39.634,33.716,59.845c5.528,10.815,9.912,21.981,9.597,34.443
			c-0.344,13.612-3.981,26.009-14.475,35.301c-12.517,11.086-27.244,13.506-42.885,8.543c-15.296-4.853-24.077-16.064-27.812-31.446
			c-3.87-15.926-0.122-30.695,7.176-44.771c4.097-7.899,8.628-15.587,13.234-23.207
			C658.912,617.983,666.901,605.777,672.825,591.745z"/>
		<path fill="#74BAE3" d="M412.611,591.745c9.178,21.619,23.384,39.634,33.717,59.845c5.528,10.815,9.912,21.981,9.597,34.443
			c-0.346,13.612-3.981,26.009-14.476,35.301c-12.517,11.086-27.244,13.506-42.884,8.543c-15.297-4.853-24.077-16.064-27.812-31.446
			c-3.871-15.926-0.122-30.695,7.176-44.771c4.097-7.899,8.628-15.587,13.233-23.207
			C398.698,617.983,406.687,605.777,412.611,591.745z"/>
		<path fill="#74BAE3" d="M542.718,548.376c9.177,21.619,23.385,39.634,33.717,59.845c5.528,10.815,9.912,21.981,9.597,34.444
			c-0.345,13.611-3.981,26.008-14.475,35.3c-12.518,11.086-27.244,13.506-42.885,8.544c-15.297-4.854-24.077-16.065-27.813-31.447
			c-3.87-15.926-0.122-30.695,7.176-44.771c4.097-7.899,8.628-15.587,13.234-23.207
			C528.806,574.614,536.795,562.407,542.718,548.376z"/>
	</g>
</g>
</svg>
